HIERARCHY
ROOT Hips
{
	OFFSET -14.64140 90.27770 -84.91600
	CHANNELS 6 Xposition Yposition Zposition Zrotation Xrotation Yrotation
	JOINT Spine
	{
		OFFSET 0.00000 13.20850 -1.60436
		CHANNELS 3 Zrotation Xrotation Yrotation
		JOINT Spine1
		{
			OFFSET 0.00000 8.61716 0.00000
			CHANNELS 3 Zrotation Xrotation Yrotation
			JOINT Spine2
			{
				OFFSET 0.00000 8.61717 0.00000
				CHANNELS 3 Zrotation Xrotation Yrotation
				JOINT Spine3
				{
					OFFSET 0.00000 8.61717 0.00000
					CHANNELS 3 Zrotation Xrotation Yrotation
					JOINT Neck
					{
						OFFSET 0.00000 11.07920 1.10792
						CHANNELS 3 Zrotation Xrotation Yrotation
						JOINT Neck1
						{
							OFFSET 0.00000 7.08032 0.00000
							CHANNELS 3 Zrotation Xrotation Yrotation
							JOINT Head
							{
								OFFSET 0.00000 7.08031 0.00000
								CHANNELS 3 Zrotation Xrotation Yrotation
								End site
								{
									OFFSET 0.00000 0.00000 0.00000
								}
							}
						}
					}
					JOINT RightShoulder
					{
						OFFSET -0.01000 7.91373 5.19711
						CHANNELS 3 Zrotation Xrotation Yrotation
						JOINT RightArm
						{
							OFFSET -18.41580 0.00000 0.00000
							CHANNELS 3 Zrotation Xrotation Yrotation
							JOINT RightForeArm
							{
								OFFSET -29.11090 0.00000 0.00000
								CHANNELS 3 Zrotation Xrotation Yrotation
								JOINT RightHand
								{
									OFFSET -24.65040 0.00000 0.00000
									CHANNELS 3 Zrotation Xrotation Yrotation
									JOINT RightHandThumb1
									{
										OFFSET -5.35114 -0.85590 3.97906
										CHANNELS 3 Zrotation Xrotation Yrotation
										JOINT RightHandThumb2
										{
											OFFSET -4.52789 0.00000 0.00000
											CHANNELS 3 Zrotation Xrotation Yrotation
											JOINT RightHandThumb3
											{
												OFFSET -2.46976 0.00000 0.00000
												CHANNELS 3 Zrotation Xrotation Yrotation
												End site
												{
													OFFSET 0.00000 0.00000 0.00000
												}
											}
										}
									}
									JOINT RightHandIndex1
									{
										OFFSET -14.26970 0.00000 2.88139
										CHANNELS 3 Zrotation Xrotation Yrotation
										JOINT RightHandIndex2
										{
											OFFSET -5.48836 0.00000 0.00000
											CHANNELS 3 Zrotation Xrotation Yrotation
											JOINT RightHandIndex3
											{
												OFFSET -3.01859 0.00000 0.00000
												CHANNELS 3 Zrotation Xrotation Yrotation
												End site
												{
													OFFSET 0.00000 0.00000 0.00000
												}
											}
										}
									}
									JOINT RightHandMiddle1
									{
										OFFSET -14.26970 0.00000 -0.09147
										CHANNELS 3 Zrotation Xrotation Yrotation
										JOINT RightHandMiddle2
										{
											OFFSET -6.17441 0.00000 0.00000
											CHANNELS 3 Zrotation Xrotation Yrotation
											JOINT RightHandMiddle3
											{
												OFFSET -3.56743 0.00000 0.00000
												CHANNELS 3 Zrotation Xrotation Yrotation
												End site
												{
													OFFSET 0.00000 0.00000 0.00000
												}
											}
										}
									}
									JOINT RightHandRing1
									{
										OFFSET -12.69180 0.00000 -3.06433
										CHANNELS 3 Zrotation Xrotation Yrotation
										JOINT RightHandRing2
										{
											OFFSET -5.62556 0.00000 0.00000
											CHANNELS 3 Zrotation Xrotation Yrotation
											JOINT RightHandRing3
											{
												OFFSET -3.56744 0.00000 0.00000
												CHANNELS 3 Zrotation Xrotation Yrotation
												End site
												{
													OFFSET 0.00000 0.00000 0.00000
												}
											}
										}
									}
									JOINT RightHandPinky1
									{
										OFFSET -11.11390 0.00000 -6.03719
										CHANNELS 3 Zrotation Xrotation Yrotation
										JOINT RightHandPinky2
										{
											OFFSET -4.52789 0.00000 0.00000
											CHANNELS 3 Zrotation Xrotation Yrotation
											JOINT RightHandPinky3
											{
												OFFSET -2.46976 0.00000 0.00000
												CHANNELS 3 Zrotation Xrotation Yrotation
												End site
												{
													OFFSET 0.00000 0.00000 0.00000
												}
											}
										}
									}
								}
							}
						}
					}
					JOINT LeftShoulder
					{
						OFFSET 0.01000 7.91373 5.19711
						CHANNELS 3 Zrotation Xrotation Yrotation
						JOINT LeftArm
						{
							OFFSET 18.41580 0.00000 0.00000
							CHANNELS 3 Zrotation Xrotation Yrotation
							JOINT LeftForeArm
							{
								OFFSET 29.11090 0.00000 0.00000
								CHANNELS 3 Zrotation Xrotation Yrotation
								JOINT LeftHand
								{
									OFFSET 24.65040 0.00000 0.00000
									CHANNELS 3 Zrotation Xrotation Yrotation
									JOINT LeftHandThumb1
									{
										OFFSET 5.35114 -0.85590 3.97906
										CHANNELS 3 Zrotation Xrotation Yrotation
										JOINT LeftHandThumb2
										{
											OFFSET 4.52789 0.00000 0.00000
											CHANNELS 3 Zrotation Xrotation Yrotation
											JOINT LeftHandThumb3
											{
												OFFSET 2.46977 0.00000 0.00000
												CHANNELS 3 Zrotation Xrotation Yrotation
												End site
												{
													OFFSET 0.00000 0.00000 0.00000
												}
											}
										}
									}
									JOINT LeftHandIndex1
									{
										OFFSET 14.26970 0.00000 2.88139
										CHANNELS 3 Zrotation Xrotation Yrotation
										JOINT LeftHandIndex2
										{
											OFFSET 5.48836 0.00000 0.00000
											CHANNELS 3 Zrotation Xrotation Yrotation
											JOINT LeftHandIndex3
											{
												OFFSET 3.01859 0.00000 0.00000
												CHANNELS 3 Zrotation Xrotation Yrotation
												End site
												{
													OFFSET 0.00000 0.00000 0.00000
												}
											}
										}
									}
									JOINT LeftHandMiddle1
									{
										OFFSET 14.26970 0.00000 -0.09147
										CHANNELS 3 Zrotation Xrotation Yrotation
										JOINT LeftHandMiddle2
										{
											OFFSET 6.17440 0.00000 0.00000
											CHANNELS 3 Zrotation Xrotation Yrotation
											JOINT LeftHandMiddle3
											{
												OFFSET 3.56744 0.00000 0.00000
												CHANNELS 3 Zrotation Xrotation Yrotation
												End site
												{
													OFFSET 0.00000 0.00000 0.00000
												}
											}
										}
									}
									JOINT LeftHandRing1
									{
										OFFSET 12.69180 0.00000 -3.06433
										CHANNELS 3 Zrotation Xrotation Yrotation
										JOINT LeftHandRing2
										{
											OFFSET 5.62556 0.00000 0.00000
											CHANNELS 3 Zrotation Xrotation Yrotation
											JOINT LeftHandRing3
											{
												OFFSET 3.56744 0.00000 0.00000
												CHANNELS 3 Zrotation Xrotation Yrotation
												End site
												{
													OFFSET 0.00000 0.00000 0.00000
												}
											}
										}
									}
									JOINT LeftHandPinky1
									{
										OFFSET 11.11390 0.00000 -6.03719
										CHANNELS 3 Zrotation Xrotation Yrotation
										JOINT LeftHandPinky2
										{
											OFFSET 4.52789 0.00000 0.00000
											CHANNELS 3 Zrotation Xrotation Yrotation
											JOINT LeftHandPinky3
											{
												OFFSET 2.46976 0.00000 0.00000
												CHANNELS 3 Zrotation Xrotation Yrotation
												End site
												{
													OFFSET 0.00000 0.00000 0.00000
												}
											}
										}
									}
								}
							}
						}
					}
					JOINT pCube4
					{
						OFFSET 0.00000 10.91090 1.10792
						CHANNELS 3 Zrotation Xrotation Yrotation
						End site
						{
							OFFSET 0.00000 0.00000 0.00000
						}
					}
				}
			}
		}
	}
	JOINT RightUpLeg
	{
		OFFSET -9.98441 0.00000 0.00000
		CHANNELS 3 Zrotation Xrotation Yrotation
		JOINT RightLeg
		{
			OFFSET 0.00000 -42.11790 0.00000
			CHANNELS 3 Zrotation Xrotation Yrotation
			JOINT RightFoot
			{
				OFFSET 0.00000 -45.00020 -0.00001
				CHANNELS 3 Zrotation Xrotation Yrotation
				JOINT RightForeFoot
				{
					OFFSET 0.00000 -3.74820 0.00000
					CHANNELS 3 Zrotation Xrotation Yrotation
					JOINT RightToeBase
					{
						OFFSET 0.00000 0.06325 14.43120
						CHANNELS 3 Zrotation Xrotation Yrotation
						End site
						{
							OFFSET 0.00000 0.00000 0.00000
						}
					}
				}
			}
		}
	}
	JOINT LeftUpLeg
	{
		OFFSET 9.98441 0.00000 0.00000
		CHANNELS 3 Zrotation Xrotation Yrotation
		JOINT LeftLeg
		{
			OFFSET 0.00000 -42.11800 0.00000
			CHANNELS 3 Zrotation Xrotation Yrotation
			JOINT LeftFoot
			{
				OFFSET 0.00000 -45.00070 0.00000
				CHANNELS 3 Zrotation Xrotation Yrotation
				JOINT LeftForeFoot
				{
					OFFSET 0.00000 -3.74824 0.00000
					CHANNELS 3 Zrotation Xrotation Yrotation
					JOINT LeftToeBase
					{
						OFFSET 0.00000 0.06325 14.43110
						CHANNELS 3 Zrotation Xrotation Yrotation
						End site
						{
							OFFSET 0.00000 0.00000 0.00000
						}
					}
				}
			}
		}
	}
}
MOTION
Frames: 4
Frame Time: 0.050000
0.04195004094486644 0.006000310175197454 0.04992060601986734 0.014481177719320022 -0.01868109912188937 -0.002643198482051326 -4.66070502155944 -0.7974257201549669 -0.5110748650404451 -0.9903237965383119 3.485114509510866 0.3548962571591039 -1.4517427451562221 -2.2365678313869872 -0.5415930492966502 -0.7125082187257094 -0.12677011799617785 -0.7969554309629242 0.23843932200169543 12.50140343215753 -0.28417512951636886 0.3206726646479629 -0.11440254261834376 -2.8557952846997474 0.6586363692072695 -15.165644043912453 -0.24042063325064983 -6.969666025386943 2.356483446534417 -12.51033299840386 58.51360300239592 14.877687257952378 29.556912050055022 5.838215303512731 0.5822217114260291 102.25413839595947 20.642953632800737 -0.7443040903753866 -3.9886690821409387 4.542803190519279 -0.13825506034583948 -1.592786794971941 0.004773500603755739 0.0040669316221465315 -56.28024553369896 0.030565811782112276 0.020109730180802504 -56.19062999163622 -38.770105174536575 -0.009951727855318216 0.032330748828579024 -0.01748532727991108 -0.024013363178514758 0.048079435977273544 -0.01160038920196613 -0.00861063336852068 0.049511199326323516 -36.679774049345575 0.004385105882268051 -0.03570855925579906 -0.018387881580719138 -0.002525109724575069 0.02944912942627943 0.013706526035250164 0.011594608423423558 -0.006080055682961426 -19.72513271731129 0.022875431881407032 0.0335635628070628 0.0029656954368303522 -0.015251151198595887 0.004972277878955108 0.04436149484946334 -0.00046395957862933873 0.006103454740087699 24.085881298306795 0.030506392603879554 0.04755455510306965 28.86549784878037 0.031904001400542475 0.01541095245098935 28.87524496766866 0.007535475524241371 0.013222274024937346 7.111729961174518 1.646537672076825 11.540913249193183 -63.382351359116974 22.64735470227093 -20.86040713147289 -44.54960450995275 5.420285646506207 -94.29979965183006 -11.374077553425963 -2.3231418865899998 0.7192619242845276 -0.5099450040061325 0.07884516768385598 -8.076449157372265 -0.026396857238108803 -0.026992181220570167 44.561783177589504 0.02338555830811796 -0.0075539085393445966 44.557519679191586 12.509192436381745 0.04603499210389098 -0.04533169386994803 0.018084011323994786 -0.005999283381521489 -0.022679573506782555 -0.00214349562525642 0.04294245032695313 -0.025231219736740983 11.12817892536666 -0.04736257270952358 -0.01269063188759018 0.0013164892937302796 -0.026278995634948423 -0.008906565892758105 -0.048203347125579256 0.02734581341826933 -0.024518112568087252 4.804184267738438 -0.017277701259371857 -0.005629012912811981 0.014817102561564634 -0.036509994466423466 -0.039950169362380994 -0.02862910994712315 0.004958892427077529 0.010709980402274602 -5.603376096732847 0.028279772102216143 0.020276335156485165 -6.677777508099567 -0.005906262787463421 -0.01997819522126039 -6.675677820786656 -0.04706625881448876 0.03093408034416756 0.0356535059147143 -0.04081072869676981 0.007748672799119043 8.070905795938362 3.468713521257287 -19.17855013847647 -0.004320100979138202 10.380145796644786 0.020026433743247002 -5.581127464434844 -15.621731218567342 3.162123469729631 -0.01227120810743475 -0.005427656125774671 0.01648929195178188 -0.0371009678290311 4.668118518181565 0.04143683925607561 12.479841554306875 -8.20838752249351 6.848601505303323 0.0008512640026242352 46.36705305841684 0.008276343404612845 -4.361126445028067 -14.766040071891476 -3.8164535251976703 -0.0037741493147991816 -0.022520398064663945 0.04086419639601353 0.03675614239445928 -10.774930528544333 -0.036291619063400934 
-0.02100274668192005 -0.011291526269506483 0.04069538644921558 0.02504899557635748 -0.03452286231942169 -0.016759035189098215 -4.698294556078969 -0.6560007231960074 -0.49591142661632387 -1.0032654423830982 3.485991802342723 0.37608994439058496 -1.4432563871326414 -2.2485241946893093 -0.7269309362343447 -0.6885761485473446 -0.07136144762718756 -0.7827946402480545 0.2595154373659953 12.464777910638238 -0.2504817837964453 0.36788109512151607 -0.008930803019185217 -2.73103685789744 0.6468760959171799 -15.062801453525545 -0.20668570058997154 -6.894197744130551 2.381411756019097 -12.590726957647005 59.921092464410336 14.254446799576321 28.38833410076803 6.058242039515764 0.808204106423699 101.22405673886057 21.26887269460874 -0.7741038719170801 -4.477262193781639 4.545087490758393 -0.1203503028949514 -1.6146039206775649 0.014073842353081484 0.010880013155571067 -56.21950774722226 -0.005125228967997516 -0.011110688049757338 -56.24143370262625 -38.75384266429675 0.013117592180880922 -0.0143319260673063 -0.00955634819198663 -0.017126102727710327 0.04738368737379142 -0.013830261338618073 -0.006441392701382687 -0.015121146866876364 -36.73556057444635 0.00303441504550783 -0.042980296978409376 0.010927827839168586 -0.045531896475025174 0.007434844360023305 0.03591577365786448 0.04683382219634025 -0.04678525926069027 -19.763725095855044 0.030901514995981025 -0.04159725438809817 0.004837605558746355 0.004940956382085245 0.04829468497872394 -0.029991924417625843 -0.009403159647456525 0.00833020018981213 24.079712095430832 0.036732176352180144 0.03403928297055915 28.890119468357575 0.02179354670098871 -0.01544632373317143 28.84042151216931 -0.03900131199228184 0.004502019983870641 7.231196733989333 1.6560392327064044 11.512220689378337 -63.51195876051142 22.731996186728065 -21.11696285453828 -43.97763482461493 5.458378450468414 -93.82385838998512 -12.26091149722541 -2.9162634226648367 1.3319065557804135 -0.49190570739405515 0.06576690030559083 -8.109432355269918 0.018241283141291087 0.001387249879302245 44.59366729465248 0.0168809525209208 -0.018584249619668442 44.578313375198555 12.509551627522464 -0.02879948364631058 0.044937546557553595 0.032918458705673816 0.011454830794175933 -0.039921290331252975 0.017376628021570556 -0.012915404402030877 -0.012719216660046233 11.057502110413017 -0.011458513483038358 -0.007635749606194527 0.04255650484883553 -0.02676623805750303 0.007324710109595407 0.0283211946583404 0.022181465153773595 -0.00403091879419744 4.815848389852717 -0.04748448672322802 0.017819798401204123 -0.03431834834803684 -0.044257972152375785 -0.012508656730789732 -0.043406472915223177 0.014732896044213238 -0.022810949095536895 -5.566876001244232 0.013168360872780007 -0.024253851290104784 -6.74623511709949 -0.04176368746497339 -0.010992086119665881 -6.759790702743469 -0.01515281318067088 0.019473065905753453 0.03887217063950835 -0.010546663692809582 -0.0035380189518963885 8.04866700277698 3.4991932576618967 -19.217910842797814 0.041703815688876836 10.389849706168222 0.06209356273171035 -5.63623172737404 -15.685086183736868 3.170891313105741 -0.04662960898002477 0.01512936961587304 -0.020526260348089364 0.011574918178980329 4.6650833241092045 0.042527676640517875 12.498023517871697 -8.23828979952409 6.877122319109426 0.009894679436991818 46.33021878027709 -0.03126307291321391 -4.302477325014005 -14.733814053313663 -3.8216980356780574 -0.042359475691795455 0.005011233713535887 -0.0027802275239997977 0.019703259705499215 -10.739380702970205 0.0481697046106761 
0.007270318691444329 -0.010110907385049875 0.03788228748452779 0.0347033496446874 0.019106316253063336 -0.03363219157956734 -4.629950456699464 -0.6378500945283925 -0.543399603050188 -0.9767542351236428 3.4379955447596435 0.36991116166675075 -1.4440260779709515 -2.2741595130189958 -0.8530586617531474 -0.703628365652672 -0.07542660859617839 -0.80216739493395 0.23463242037173895 12.465296003466252 -0.36201404984530966 0.3973457445025091 -0.004623210989770353 -2.786806828781349 0.6471210288744697 -14.933029418248946 -0.2647627529526363 -6.859195633979047 2.400625746694689 -12.459004873281055 60.96626152067904 14.498765565476576 28.200558845696698 6.382850420100724 1.0537790630822481 100.29661481864336 21.77806887054385 -0.7060267645655811 -4.800901182445582 4.516309948623864 -0.15572217832162077 -1.586326301680332 -0.017689223135758176 -0.018055152950397193 -56.261896280067035 0.004922049903652683 0.025877014389075012 -56.2027882361044 -38.725655863381974 -0.04478463989434509 -0.027693307168682818 -0.02096540595526151 0.008609745301781345 0.02647033890976514 -0.03909753500673378 -0.03225242631388806 -0.013841753981029714 -36.67488034764638 0.005372138033770096 0.004880546513260027 -0.045166725385095835 0.03336098528448306 0.008259782263976693 0.0012974569628173946 -0.032804074461605215 -0.0390812105639706 -19.757551818618275 0.03333228438583746 -0.0291519077834705 -0.019821809105713205 0.028873090886385233 0.03331112196701775 0.04524702018910471 0.008243818285760231 0.026611692434983587 24.054074476273435 0.0179196041740723 0.007584563606864764 28.89508856752082 -0.03774617885392585 0.01157779722108163 28.90649648335004 0.011264419489871716 0.02919592147246913 7.468449172179398 1.6963328455687336 11.408632150713288 -63.00914579749614 23.213372550419994 -22.52733832783197 -39.654564322381596 4.347929144159867 -93.26145494339352 -13.086898870977024 -3.828218423519864 2.190927909682984 -0.5030111921134768 0.08421895023711169 -8.145930538556906 -0.0037224902171714277 0.014874522263525381 44.57584114970521 -0.012528832625499657 -0.04021178306600314 44.56788579774529 12.455832424088673 -0.04465469884581785 -0.039526509827190595 -0.042229051038487106 0.00937763109650077 0.016605766696585797 0.0016396827071064903 -0.03657713764711935 -0.029340303138909014 11.100373744159464 -0.01181912459542166 0.0010914268773977009 -0.026021427083443956 -0.017188232533097245 0.014350556392798395 0.0056689895473869085 0.007447929084774661 -0.01729366126384341 4.750283897612036 -0.04257354764894805 -0.01578762273603284 0.04712508449905521 -0.03806221727233841 -0.040432898191610535 0.0233696777936881 -0.013087833211922079 -0.008230506955315048 -5.607114771194813 0.025462611382979092 0.03672989948096186 -6.67153286585647 -0.04275480012617218 0.015520256893268171 -6.734773221060781 -0.025988942718214003 0.0074488480181085885 0.020549819298264303 0.008325507224131865 -0.03234246841136344 8.072976339650182 3.4723385538459564 -19.248094702524533 0.02951524903873127 10.397528325997888 0.009724173327511226 -5.623580666219849 -15.644085903063218 3.17587223497238 0.04786335778856383 0.015370544168800064 0.04277316608074217 0.022173394410142884 4.661134393741733 -0.04063689276130349 12.417577480713451 -8.216174291057994 6.8671049143367116 -0.03728972161685718 46.37572182748771 -0.04512341524411795 -4.2895888821028585 -14.719370875414958 -3.8778947250219082 0.03351218027758419 -0.030663831518914705 0.04914062959539013 -0.01774956155150273 -10.763917130153024 0.0037262906213119816 
0.022529836169480934 0.01465363778357743 0.02540392685662146 0.014058185956580052 0.023913517769083126 -0.008075496987996986 -4.575077503838598 -0.5165681152819529 -0.5499767398437503 -0.9641651537245101 3.42906318604014 0.367696728879675 -1.4199810633448824 -2.2585065812243545 -0.9886414637560834 -0.6324480842147053 -0.013249127580360807 -0.8290240191424582 0.16808609747425107 12.506316608426104 -0.4196110037600711 0.42061702363113745 0.08423300581684913 -2.956061144582631 0.6774486944412837 -14.711653803839093 -0.22090987471017098 -6.773773538526766 2.3633130021264157 -12.40521158068377 61.68756753336047 15.674372267857049 28.423885789544574 6.871493315471015 1.3329090949196145 99.66877323317118 22.163406947814106 -0.6880724709364724 -5.0575026497096776 4.554814697418275 -0.17199812120972563 -1.5968499741228066 0.017993546749395125 -0.022590627869152995 -56.184637509356854 0.03383712819034595 -0.0015020295131788534 -56.247534428452944 -38.74458682832444 0.018268624217398187 -0.024717625464628412 -0.004207238544362326 0.046398761110066467 -0.03212314855876536 -0.03909319584909714 0.02207778818939199 -0.03871176030096567 -36.678845360769195 0.03230112689647144 0.019067924457009142 -0.005750844528680115 0.04300727664777228 0.04321169677956918 -0.02713408139279861 -0.027812298394892836 0.04810103581390082 -19.801581028155162 -0.0050883597559730894 0.0038889157540340402 -0.009203285159293285 -0.00374964447788645 0.007714427274940453 0.012486332314610424 0.049257028160778274 -0.028146661596810365 24.017693531393842 0.02723646825454528 0.0017765571632701197 28.85444603671049 0.0060668383654741385 0.033962077004156675 28.87582937345401 0.006533311686358609 0.018867429215661872 7.7269054155481385 1.800760128186854 11.308544437969969 -62.172590991543466 23.833372032685038 -24.490599552396073 -33.971815943950034 2.7228060973835597 -93.44688428238217 -13.6884255646178 -4.811076388059094 3.12296781657179 -0.4419237601571286 0.029284487317646074 -8.104585267165561 0.003969149270019923 -0.005119565750131645 44.59683533337471 0.04991098965581233 -0.044850310723552084 44.59441019007439 12.458980188726331 -0.03712556238716736 0.024966466984812762 -0.034228788427431114 0.022723828587416273 -0.04495762412782102 -0.013523262251939472 0.03674576545858255 -0.008811859617848033 11.0877378556183 -0.03044210966784484 -0.036157552387911476 0.035996549892706876 -0.019525890627538116 0.003573496922434966 0.02817791891172195 0.03393012857080321 0.040610959663151945 4.72740602236958 -0.03292722691501549 0.03951912970566449 0.028585963720136914 0.048009940396926284 -0.03263357308641603 -0.021932072695662486 0.042722625040418016 -0.048800227677063227 -5.627552853397077 0.03553248371552599 0.0057950433389336265 -6.727056018985164 -0.004076856235741593 0.025278110249076655 -6.7612631554829425 -0.006718873096440385 0.012557164073423228 -0.017653295764423562 0.02813285209394007 0.004231515810306937 8.040355281555216 3.513107550662644 -19.228225454555673 0.008877089290899073 10.358876801552725 -0.021366500949807663 -5.652572535467108 -15.61669939207919 3.1784662670224786 0.022487438431218084 0.001533643894176151 -0.02212122726902408 -0.02931278109669506 4.671513276819933 0.02385416677821585 12.422382290398465 -8.270183783954263 6.904591980829106 -0.037011136344359666 46.3543646794639 0.004023845067390688 -4.338350922107826 -14.76425250961228 -3.821188627685125 0.03581689771850816 -0.009198739362144027 -0.043538922756360496 -0.013235162673164559 -10.782190598276301 -0.03482837753099729 
